<svg xmlns:vectornator="http://vectornator.io" xmlns="http://www.w3.org/2000/svg" viewBox="0 0 800 800" fill-rule="evenodd" clip-rule="evenodd" stroke-linecap="round" stroke-linejoin="round">
<g vectornator:layerName="Layer 1">
<path d="M400 25c-109.183 0-207.436 46.688-275.969 121.156v172.313L417.062 25.438C411.398 25.183 405.727 25 400 25zm133.156 24.406L182.562 400l350.626 350.625c90.843-34.551 164.79-103.398 206.031-190.719l-76.875-76.875-84.906 84.875-70.032-70.062 84.875-84.875-84.875-84.875 70.032-70.032 84.906 84.876 84.812-84.813c-39.22-95.865-116.974-171.83-214-208.719zM400 312.5c48.325 0 87.5 39.175 87.5 87.5s-39.175 87.5-87.5 87.5-87.5-39.175-87.5-87.5 39.175-87.5 87.5-87.5zm373.812 59.031l-41.437 41.438 38.969 38.969C773.699 434.949 775 417.636 775 400c0-9.586-.481-19.064-1.188-28.469zm-649.781 110v172.313C192.564 728.312 290.817 775 400 775c5.721 0 11.405-.184 17.062-.438L124.031 481.531z" fill="#fff"/>
<path stroke="#fff" stroke-width="14" d="M25 400C25 192.893 192.893 25 400 25s375 167.893 375 375-167.893 375-375 375S25 607.107 25 400z" fill="none"/>
<path d="M400 330c38.66 0 70 31.34 70 70s-31.34 70-70 70" fill="#fff"/>
</g>
</svg>