<?xml version="1.0" encoding="UTF-8" standalone="no"?> <!-- Created with Vectornator for iOS (http://vectornator.io/) --><!DOCTYPE svg PUBLIC "-//W3C//DTD SVG 1.1//EN" "http://www.w3.org/Graphics/SVG/1.1/DTD/svg11.dtd">
<svg style="fill-rule:evenodd;clip-rule:evenodd;stroke-linecap:round;stroke-linejoin:round;" xmlns:vectornator="http://vectornator.io" xmlns:xlink="http://www.w3.org/1999/xlink" xmlns="http://www.w3.org/2000/svg" xml:space="preserve" version="1.1" viewBox="0 0 800 800">
<metadata>
<vectornator:setting key="DisplayWhiteBackground" value="0"/>
<vectornator:setting key="RulersVisible" value="1"/>
<vectornator:setting key="SnapToEdges" value="0"/>
<vectornator:setting key="Units" value="Pixels"/>
<vectornator:setting key="DynamicGuides" value="1"/>
<vectornator:setting key="SnapToPoints" value="0"/>
<vectornator:setting key="SnapToGrid" value="0"/>
<vectornator:setting key="SnapToGuides" value="1"/>
<vectornator:setting key="ShowGrid" value="0"/>
<vectornator:setting key="GridSpacing" value="5"/>
</metadata>
<defs/>
<g id="Слой 1" vectornator:layerName="Слой 1">
<path d="M400+25C290.817+25+192.564+71.688+124.031+146.156L124.031+318.469L417.062+25.4375C411.398+25.1834+405.727+25+400+25ZM533.156+49.4062L182.562+400L533.188+750.625C624.031+716.074+697.978+647.227+739.219+559.906L662.344+483.031L577.438+567.906L507.406+497.844L592.281+412.969L507.406+328.094L577.438+258.062L662.344+342.938L747.156+258.125C707.936+162.26+630.182+86.2956+533.156+49.4062ZM400+312.5C448.325+312.5+487.5+351.675+487.5+400C487.5+448.325+448.325+487.5+400+487.5C351.675+487.5+312.5+448.325+312.5+400C312.5+351.675+351.675+312.5+400+312.5ZM773.812+371.531L732.375+412.969L771.344+451.938C773.699+434.949+775+417.636+775+400C775+390.414+774.519+380.936+773.812+371.531ZM124.031+481.531L124.031+653.844C192.564+728.312+290.817+775+400+775C405.721+775+411.405+774.816+417.062+774.562L124.031+481.531Z" opacity="1" fill="#ffffff"/>
<path stroke="#ffffff" stroke-width="14" d="M25+400C25+192.893+192.893+25+400+25C607.107+25+775+192.893+775+400C775+607.107+607.107+775+400+775C192.893+775+25+607.107+25+400Z" fill="none" stroke-linecap="round" opacity="1" stroke-linejoin="round"/>
<path d="M400+330C438.66+330+470+361.34+470+400C470+438.66+438.66+470+400+470" opacity="1" fill="#ffffff"/>
</g>
</svg>
